<svg width="33" height="33" viewBox="0 0 33 33" fill="none" xmlns="http://www.w3.org/2000/svg">
<g filter="url(#filter0_d_96182_17)">
<path d="M14.1074 12.5C14.1074 13.8214 15.1786 14.8926 16.5 14.8926C17.8214 14.8926 18.8926 13.8214 18.8926 12.5C18.8926 11.1786 17.8214 10.1074 16.5 10.1074C15.1786 10.1074 14.1074 11.1786 14.1074 12.5Z" fill="#999999"/>
<path d="M10.9046 8.26691C11.0196 7.95525 11.2031 7.67316 11.4415 7.4416C11.6731 7.20319 11.955 7.0197 12.2668 6.90469C12.5197 6.80646 12.8997 6.68954 13.5995 6.65768C14.3565 6.62316 14.5835 6.61572 16.5 6.61572C18.4167 6.61572 18.6437 6.62297 19.4005 6.65749C20.1003 6.68954 20.4804 6.80646 20.7332 6.90469C21.045 7.0197 21.3271 7.20319 21.5585 7.4416C21.7969 7.67316 21.9804 7.95506 22.0956 8.26691C22.1938 8.51983 22.3107 8.89996 22.3426 9.59977C22.3771 10.3566 22.3846 10.5836 22.3846 12.5003C22.3846 14.4168 22.3771 14.6438 22.3426 15.4008C22.3107 16.1006 22.1938 16.4805 22.0956 16.7334C21.9804 17.0453 21.7971 17.3272 21.5587 17.5588C21.3271 17.7972 21.0452 17.9807 20.7334 18.0957C20.4804 18.1941 20.1003 18.311 19.4005 18.3429C18.6437 18.3774 18.4169 18.3846 16.5002 18.3846C14.5833 18.3846 14.3563 18.3774 13.5997 18.3429C12.8999 18.311 12.5197 18.1941 12.2668 18.0957C11.6408 17.8542 11.1461 17.3594 10.9046 16.7334C10.8064 16.4805 10.6895 16.1006 10.6574 15.4008C10.6229 14.6438 10.6156 14.4168 10.6156 12.5003C10.6156 10.5836 10.6229 10.3566 10.6574 9.59977C10.6893 8.89996 10.8062 8.51983 10.9046 8.26691ZM16.5 16.1858C18.5357 16.1858 20.186 14.5358 20.186 12.5001C20.186 10.4644 18.5357 8.81432 16.5 8.81432C14.4645 8.81432 12.8142 10.4644 12.8142 12.5001C12.8142 14.5358 14.4645 16.1858 16.5 16.1858ZM12.6685 9.52996C13.1442 9.52996 13.5299 9.1443 13.5299 8.6686C13.5299 8.19291 13.1442 7.80724 12.6685 7.80724C12.1928 7.80724 11.8072 8.19291 11.8072 8.6686C11.8074 9.1443 12.1928 9.52996 12.6685 9.52996Z" fill="#999999"/>
<path d="M16.5 0C23.4025 0 29 5.5975 29 12.5C29 19.4025 23.4025 25 16.5 25C9.5975 25 4 19.4025 4 12.5C4 5.5975 9.5975 0 16.5 0ZM9.36556 15.4593C9.40028 16.2233 9.52177 16.745 9.69916 17.2016C10.072 18.1658 10.8342 18.928 11.7984 19.3008C12.2548 19.4782 12.7767 19.5995 13.5406 19.6344C14.306 19.6693 14.5505 19.6777 16.4998 19.6777C18.4493 19.6777 18.6936 19.6693 19.4593 19.6344C20.2231 19.5995 20.745 19.4782 21.2014 19.3008C21.6805 19.1206 22.1143 18.8381 22.4729 18.4729C22.8379 18.1145 23.1204 17.6805 23.3007 17.2016C23.478 16.7452 23.5995 16.2233 23.6342 15.4594C23.6695 14.6938 23.6777 14.4493 23.6777 12.5C23.6777 10.5507 23.6695 10.3062 23.6344 9.54075C23.5997 8.77666 23.4784 8.255 23.301 7.79839C23.1208 7.31945 22.8381 6.88553 22.4729 6.52714C22.1145 6.16188 21.6805 5.8794 21.2016 5.69916C20.745 5.52177 20.2233 5.40047 19.4593 5.36556C18.6938 5.33066 18.4493 5.32227 16.5 5.32227C14.5507 5.32227 14.3062 5.33066 13.5407 5.36575C12.7767 5.40047 12.255 5.52177 11.7984 5.69897C11.3195 5.87921 10.8855 6.16188 10.5269 6.52714C10.1619 6.88572 9.87921 7.31945 9.69916 7.79839C9.52158 8.255 9.40028 8.77666 9.36537 9.54075C9.33047 10.3062 9.32227 10.5507 9.32227 12.5C9.32227 14.4493 9.33047 14.6938 9.36556 15.4593Z" fill="#999999"/>
</g>
<defs>
<filter id="filter0_d_96182_17" x="0" y="0" width="33" height="33" filterUnits="userSpaceOnUse" color-interpolation-filters="sRGB">
<feFlood flood-opacity="0" result="BackgroundImageFix"/>
<feColorMatrix in="SourceAlpha" type="matrix" values="0 0 0 0 0 0 0 0 0 0 0 0 0 0 0 0 0 0 127 0" result="hardAlpha"/>
<feOffset dy="4"/>
<feGaussianBlur stdDeviation="2"/>
<feComposite in2="hardAlpha" operator="out"/>
<feColorMatrix type="matrix" values="0 0 0 0 0 0 0 0 0 0 0 0 0 0 0 0 0 0 0.25 0"/>
<feBlend mode="normal" in2="BackgroundImageFix" result="effect1_dropShadow_96182_17"/>
<feBlend mode="normal" in="SourceGraphic" in2="effect1_dropShadow_96182_17" result="shape"/>
</filter>
</defs>
</svg>
